{"title":"Arrested.Development.S04E09.1080p.WEBRip.AAC2.0.H.264-NFRiP [Pub","uid":8513218,"size":2145378830,"categoryP":"video","categoryS":"hd___tv_shows","magnet":"?xt=urn:btih:525573b61e99224e3e4cc37358926a9d1e4a4d94&amp;dn=Arrested.Development.S04E09.1080p.WEBRip.AAC2.0.H.264-NFRiP+%5BPub&amp;tr=udp%3A%2F%2Ftracker.openbittorrent.com%3A80&amp;tr=udp%3A%2F%2Fopen.demonii.com%3A1337&amp;tr=udp%3A%2F%2Ftracker.coppersurfer.tk%3A6969&amp;tr=udp%3A%2F%2Fexodus.desync.com%3A6969","seeders":5,"leechers":1,"uploader":"DibyaTPB","files":2,"time":1369635630,"description":"                PublicHD - High-Definition Bittorrent Community\n      \n                           &lt;a href=&quot; https://publichd.se/&quot; rel=&quot;nofollow&quot; target=&quot;_NEW&quot;&gt; https://publichd.se/&lt;/a&gt;\n    \n              ----------------------------------------------------\n\nNote: This raw .ts has duped frames, they will be decimated in the encode.\n\nGeneral\nID : 1 (0x1)\nComplete name : ...Arrested.Development.S04E09.1080p.WEBRip.AAC2.0.H.264-NFRiP.ts\nFormat : MPEG-TS\nFile size : 2.00 GiB\nDuration : 32mn 56s\nOverall bit rate mode : Variable\nOverall bit rate : 8 685 Kbps\n\nVideo\nID : 100 (0x64)\nMenu ID : 1 (0x1)\nFormat : AVC\nFormat/Info : Advanced Video Codec\nFormat profile : &lt;a class=&quot;__cf_email__&quot; href=&quot;/cdn-cgi/l/email-protection&quot; data-cfemail=&quot;aee6c7c9c6eee29a809e&quot;&gt;[email&amp;#160;protected]&lt;/a&gt;&lt;script cf-hash='f9e31' type=&quot;text/javascript&quot;&gt;\n/* &lt;![CDATA[ */!function(){try{var t=&quot;currentScript&quot;in document?document.currentScript:function(){for(var t=document.getElementsByTagName(&quot;script&quot;),e=t.length;e--;)if(t[e].getAttribute(&quot;cf-hash&quot;))return t[e]}();if(t&amp;&amp;t.previousSibling){var e,r,n,i,c=t.previousSibling,a=c.getAttribute(&quot;data-cfemail&quot;);if(a){for(e=&quot;&quot;,r=parseInt(a.substr(0,2),16),n=2;a.length-n;n+=2)i=parseInt(a.substr(n,2),16)^r,e+=String.fromCharCode(i);e=document.createTextNode(e),c.parentNode.replaceChild(e,c)}}}catch(u){}}();/* ]]&gt; */&lt;/script&gt;\nFormat settings, CABAC : Yes\nFormat settings, ReFrames : 2 frames\nFormat settings, GOP : M=3, N=9\nCodec ID : 27\nDuration : 32mn 56s\nBit rate mode : Variable\nBit rate : 8 034 Kbps\nMaximum bit rate : 16.0 Mbps\nWidth : 1 920 pixels\nHeight : 1 080 pixels\nDisplay aspect ratio : 16:9\nFrame rate : 29.970 fps\nColor space : YUV\nChroma subsampling : 4:2:0\nBit depth : 8 bits\nScan type : Progressive\nBits/(Pixel*Frame) : 0.129\nStream size : 1.85 GiB (93%)\nColor primaries : BT.709\nTransfer characteristics : BT.709\nMatrix coefficients : BT.709\n\nAudio\nID : 101 (0x65)\nMenu ID : 1 (0x1)\nFormat : AAC\nFormat/Info : Advanced Audio Codec\nFormat version : Version 4\nFormat profile : LC\nMuxing mode : ADTS\nCodec ID : 15\nDuration : 32mn 56s\nBit rate mode : Variable\nBit rate : 220 Kbps\nChannel(s) : 2 channels\nChannel positions : Front: L R\nSampling rate : 48.0 KHz\nCompression mode : Lossy\nStream size : 51.8 MiB (3%)","torrent":{"xt":"urn:btih:525573b61e99224e3e4cc37358926a9d1e4a4d94","amp;dn":"Arrested.Development.S04E09.1080p.WEBRip.AAC2.0.H.264-NFRiP+%5BPub","amp;tr":["udp%3A%2F%2Ftracker.openbittorrent.com%3A80","udp%3A%2F%2Fopen.demonii.com%3A1337","udp%3A%2F%2Ftracker.coppersurfer.tk%3A6969","udp%3A%2F%2Fexodus.desync.com%3A6969"],"infoHash":"525573b61e99224e3e4cc37358926a9d1e4a4d94","infoHashBuffer":{"type":"Buffer","data":[82,85,115,182,30,153,34,78,62,76,195,115,88,146,106,157,30,74,77,148]},"announce":[],"urlList":[]}}